<svg width="21" height="10" viewBox="0 0 21 10" fill="none" xmlns="http://www.w3.org/2000/svg">
  <path fill-rule="evenodd" clip-rule="evenodd"
    d="M2.61539 3.77413L1.05628 5.31417C0.632654 5.73275 0.632654 6.41134 1.05701 6.82921C1.48136 7.24707 2.16931 7.24707 2.59294 6.82849L4.52354 4.92273C5.89799 5.62489 7.55775 6.21276 9.42825 6.38062V8.92854C9.42825 9.51999 9.91488 10 10.5145 10C11.1141 10 11.6007 9.51999 11.6007 8.92854V6.37777C13.1555 6.23419 14.5632 5.80204 15.782 5.25559L18.0986 7.54279C18.5222 7.96138 19.2101 7.96138 19.6345 7.54351C20.0589 7.12564 20.0589 6.44705 19.6352 6.02847L17.7676 4.18485C19.6432 2.99554 20.7301 1.77836 20.7301 1.77836C21.1255 1.33406 21.0814 0.656905 20.6309 0.26618C20.1805 -0.123829 19.494 -0.0802568 19.0979 0.36404C19.0979 0.36404 15.6118 4.28557 10.5 4.28557C5.38818 4.28557 1.9021 0.36404 1.9021 0.36404C1.50599 -0.0802568 0.819486 -0.123829 0.369061 0.26618C-0.0813638 0.656905 -0.125537 1.33406 0.269852 1.77836C0.269852 1.77836 1.12073 2.73124 2.61539 3.77413Z"
    fill="black" />
</svg>